# xmcd
#
# Track frame offsets:
#	150
#	17507
#	37513
#	56561
#	73658
#	90727
#	106673
#	119238
#	135881
#	155769
#	171732
#	188294
#	204498
#	220487
#	241253
#	258702
#	280500
#	299314
#	317199
#	338469
#
# Disc length: 4718 seconds
#
# Revision: 0
# Processed by: cddbd v1.5.1PL2 Copyright (c) Steve Scherf et al.
# Submitted via: audiograbber 1.80
#
DISCID=1e126c14
DTITLE=Hari Mata Hari - Best Of
DYEAR=1900
DGENRE=
TTITLE0=Kad Dode Oktobar (Version 2000)
TTITLE1=Kao Domine
TTITLE2=Bas Ti lijepo Stoje Suze
TTITLE3=Ne Lomi Me
TTITLE4=Ruzmarin
TTITLE5=Lud Sam Za Tobom
TTITLE6=Svi Moji Drumovi
TTITLE7=Ti Snas Sve
TTITLE8=Igrale Se Delije
TTITLE9=Ja Ne Pijem (duet with Harisom Dzinovicem)
TTITLE10=Prsten I Zlatni Lanac
TTITLE11=Slatka Ko Bombona
TTITLE12=Poletela Golubica
TTITLE13=Strah Me Da Te Volim
TTITLE14=Otkud Ti ko Sudbina
TTITLE15=Otkad Tebe Nema
TTITLE16=Zakon Jacega
TTITLE17=Bilo Je Lijepo Dok Je Trajalo
TTITLE18=Rodena Si Samo Za Mene
TTITLE19=Znam Pricu O Sreci
EXTD=
EXTT0=
EXTT1=
EXTT2=
EXTT3=
EXTT4=
EXTT5=
EXTT6=
EXTT7=
EXTT8=
EXTT9=
EXTT10=
EXTT11=
EXTT12=
EXTT13=
EXTT14=
EXTT15=
EXTT16=
EXTT17=
EXTT18=
EXTT19=
PLAYORDER=
